<?xml version="1.0" encoding="UTF-8"?>
<svg id="_레이어_1" data-name="레이어 1" xmlns="http://www.w3.org/2000/svg" width="280.556" height="63.635" viewBox="0 0 280.556 63.635">
  <path d="M31.664,0C14.204,0,0,14.205,0,31.664s14.204,31.664,31.664,31.664,31.664-14.204,31.664-31.664S49.124,0,31.664,0ZM31.664,60.828c-16.081,0-29.164-13.083-29.164-29.164S15.583,2.5,31.664,2.5s29.164,13.083,29.164,29.164-13.083,29.164-29.164,29.164ZM47.867,18.6c2.941-.788,5.41-1.111,5.515-.721.104.39-2.195,1.345-5.137,2.133-2.036.545-3.824.861-4.78.878-.826.862-1.711,1.766-2.639,2.694-.244.244-.485.483-.726.721.697-.075,1.574-.122,2.544-.122,2.233,0,4.043.24,4.043.536s-1.81.536-4.043.536c-1.355,0-2.547-.089-3.281-.225-2.133,2.087-4.072,3.879-5.546,5.143.111.159.202.331.276.513,5.033.019,9.627.098,13.334.217.565-.638,2.185-1.795,4.201-2.96,2.637-1.523,4.938-2.474,5.14-2.124.202.349-1.773,1.867-4.41,3.39-1.301.751-2.517,1.361-3.443,1.746,4.73.179,7.679.43,7.679.709,0,.269-2.744.513-7.187.69.849.382,1.866.903,2.951,1.53,2.637,1.523,4.611,3.04,4.41,3.39-.202.349-2.503-.602-5.14-2.124-1.8-1.039-3.271-2.067-3.972-2.731-1.432.047-3.003.088-4.682.122.516.426,1.117.972,1.743,1.598,1.579,1.579,2.689,3.028,2.48,3.238-.209.209-1.659-.901-3.238-2.48-.888-.888-1.617-1.727-2.057-2.335-2.423.043-5.049.072-7.81.082-.04.099-.092.189-.143.282,1.809,1.547,4.334,3.906,7.062,6.634.935.935,1.827,1.847,2.659,2.715.966.026,2.733.339,4.741.878,2.941.788,5.241,1.743,5.137,2.133-.104.39-2.573.067-5.515-.721-1.194-.32-2.271-.666-3.135-.992,2.978,3.183,4.894,5.532,4.641,5.784-.253.253-2.623-1.68-5.827-4.681.333.874.688,1.972,1.016,3.195.788,2.941,1.111,5.41.721,5.515-.39.104-1.345-2.195-2.133-5.137-.545-2.036-.861-3.824-.878-4.78-.862-.826-1.766-1.711-2.694-2.639-.244-.244-.483-.485-.721-.726.075.696.122,1.574.122,2.544,0,2.233-.24,4.043-.536,4.043s-.536-1.81-.536-4.043c0-1.355.089-2.547.225-3.281-2.087-2.133-3.879-4.072-5.143-5.546-.159.111-.331.202-.513.276-.019,5.033-.097,9.627-.217,13.334.638.565,1.795,2.185,2.96,4.201,1.523,2.637,2.474,4.939,2.124,5.14-.349.202-1.867-1.772-3.39-4.409-.751-1.301-1.361-2.517-1.746-3.443-.179,4.73-.43,7.679-.709,7.679-.269,0-.513-2.744-.69-7.187-.382.848-.903,1.866-1.53,2.951-1.523,2.637-3.04,4.611-3.39,4.409-.349-.202.602-2.503,2.124-5.14,1.039-1.8,2.067-3.271,2.732-3.972-.047-1.432-.088-3.003-.122-4.682-.426.516-.972,1.117-1.598,1.743-1.579,1.579-3.028,2.689-3.237,2.48-.209-.209.901-1.659,2.48-3.237.888-.888,1.727-1.617,2.335-2.057-.043-2.423-.072-5.049-.082-7.81-.099-.04-.189-.092-.281-.143-1.547,1.809-3.906,4.334-6.634,7.062-.935.935-1.847,1.827-2.715,2.659-.026.966-.339,2.733-.878,4.741-.788,2.941-1.743,5.241-2.133,5.137-.39-.104-.067-2.573.721-5.515.32-1.194.666-2.271.992-3.135-3.182,2.978-5.532,4.894-5.784,4.641s1.68-2.623,4.682-5.827c-.875.333-1.972.688-3.195,1.016-2.941.788-5.41,1.111-5.515.721-.104-.39,2.195-1.345,5.137-2.133,2.036-.545,3.824-.861,4.78-.878.826-.862,1.711-1.766,2.639-2.694.244-.244.485-.483.726-.721-.697.075-1.574.122-2.544.122-2.233,0-4.043-.24-4.043-.536s1.81-.536,4.043-.536c1.355,0,2.547.089,3.28.225,2.133-2.087,4.072-3.879,5.546-5.143-.11-.159-.202-.331-.276-.513-5.033-.019-9.627-.097-13.334-.217-.565.638-2.185,1.795-4.201,2.96-2.637,1.523-4.938,2.474-5.14,2.124-.202-.349,1.773-1.867,4.41-3.389,1.301-.751,2.517-1.361,3.443-1.746-4.73-.179-7.679-.43-7.679-.709,0-.269,2.744-.513,7.187-.69-.848-.382-1.866-.903-2.951-1.529-2.637-1.523-4.611-3.04-4.41-3.39.202-.349,2.503.602,5.14,2.124,1.8,1.039,3.271,2.067,3.972,2.731,1.432-.047,3.003-.088,4.682-.122-.516-.426-1.117-.972-1.743-1.598-1.579-1.579-2.689-3.028-2.48-3.237.209-.209,1.659.901,3.237,2.48.888.888,1.617,1.727,2.057,2.335,2.423-.043,5.049-.072,7.81-.082.04-.099.092-.189.143-.281-1.809-1.548-4.334-3.906-7.062-6.634-.935-.935-1.827-1.847-2.659-2.715-.966-.026-2.733-.34-4.741-.878-2.941-.788-5.241-1.743-5.137-2.133.104-.39,2.573-.067,5.515.721,1.194.32,2.271.666,3.136.992-2.978-3.182-4.894-5.532-4.642-5.784.253-.253,2.623,1.68,5.827,4.681-.333-.874-.688-1.972-1.015-3.195-.788-2.941-1.111-5.41-.721-5.515.39-.104,1.345,2.195,2.133,5.137.545,2.036.861,3.824.878,4.78.862.826,1.766,1.711,2.694,2.639.244.244.483.485.721.726-.075-.697-.122-1.574-.122-2.544,0-2.233.24-4.043.536-4.043s.536,1.81.536,4.043c0,1.355-.089,2.547-.225,3.281,2.087,2.133,3.879,4.072,5.143,5.546.159-.11.331-.202.513-.276.019-5.033.097-9.627.217-13.334-.638-.565-1.795-2.185-2.96-4.201-1.523-2.637-2.473-4.938-2.124-5.14.349-.202,1.867,1.773,3.39,4.41.751,1.301,1.361,2.517,1.746,3.443.179-4.73.43-7.679.709-7.679.269,0,.513,2.744.69,7.187.382-.848.903-1.866,1.53-2.951,1.523-2.637,3.04-4.611,3.39-4.41.349.202-.602,2.503-2.124,5.14-1.039,1.8-2.067,3.271-2.732,3.973.047,1.432.088,3.003.122,4.682.426-.516.972-1.117,1.598-1.743,1.579-1.579,3.028-2.689,3.238-2.48.209.209-.901,1.659-2.48,3.238-.888.888-1.727,1.617-2.335,2.057.043,2.423.071,5.049.082,7.81.099.04.189.092.281.143,1.548-1.809,3.906-4.334,6.634-7.062.935-.935,1.847-1.827,2.715-2.659.026-.966.339-2.733.878-4.741.788-2.941,1.743-5.241,2.133-5.137.39.104.067,2.574-.721,5.515-.32,1.195-.666,2.271-.992,3.136,3.183-2.978,5.532-4.894,5.785-4.642.253.253-1.68,2.623-4.682,5.827.875-.333,1.972-.688,3.195-1.015ZM77.776,47.328h10.134v2.538c0,.12-.045.207-.135.261-.09.054-.189.081-.297.081s-.213-.023-.315-.072c-.102-.048-.159-.113-.171-.197l-.27-1.242c-.048-.204-.123-.336-.225-.396-.103-.06-.237-.09-.405-.09h-2.538v10.404c0,.132.024.237.072.315.048.078.162.13.342.153l1.008.126c.108.013.183.06.225.144.042.084.06.174.054.27-.006.097-.033.184-.081.261-.048.078-.108.117-.18.117h-4.302c-.108,0-.186-.039-.234-.117-.048-.077-.069-.168-.063-.27.006-.102.033-.195.081-.279.047-.084.114-.132.198-.144l.954-.108c.192-.023.318-.068.378-.135.06-.067.09-.177.09-.333v-10.404h-2.502c-.18,0-.324.03-.432.09-.108.06-.18.192-.216.396-.096.42-.156.708-.18.864-.024.155-.048.281-.072.378-.024.096-.084.165-.18.207s-.198.062-.306.062-.207-.029-.297-.09c-.09-.06-.135-.15-.135-.271v-2.519ZM97.72,59.334c.06.084.087.178.081.279-.006.102-.045.195-.117.279-.072.084-.168.126-.288.126h-2.16l-.144-1.08c-.108.18-.261.348-.459.504-.198.156-.42.291-.666.404-.246.114-.504.201-.774.262-.27.06-.525.09-.765.09-1.092,0-1.908-.226-2.448-.675-.54-.45-.81-1.089-.81-1.917v-5.31c0-.168-.024-.275-.072-.324-.048-.047-.126-.083-.234-.107l-.612-.108c-.108-.012-.189-.062-.243-.152-.054-.091-.075-.184-.063-.279.012-.096.048-.183.108-.261.06-.078.15-.117.27-.117h2.304v6.588c0,.348.047.633.143.854.096.223.225.399.387.531.162.133.357.226.585.279s.474.081.738.081c.384,0,.807-.102,1.268-.306.462-.204.885-.528,1.269-.973v-5.706c0-.168-.024-.275-.072-.324-.048-.047-.126-.083-.234-.107l-.612-.108c-.12-.023-.213-.077-.279-.162-.066-.083-.099-.174-.099-.269s.033-.183.099-.261c.066-.078.164-.117.297-.117h2.358v7.434c0,.24.018.411.054.514.036.102.132.171.288.207l.612.107c.132,0,.228.042.288.126ZM108.178,59.334c.048.084.066.178.054.279-.012.102-.042.192-.09.27-.048.078-.114.117-.198.117h-3.276c-.084,0-.147-.039-.189-.117-.042-.077-.066-.168-.072-.27-.006-.102.012-.195.054-.279.042-.084.105-.132.189-.144l.54-.09c.12-.024.207-.052.261-.081.054-.03.081-.111.081-.243v-5.311c0-.588-.123-1.044-.369-1.368-.246-.323-.675-.485-1.287-.485-.168,0-.339.006-.513.018-.174.013-.369.052-.585.117-.216.066-.459.162-.729.288-.27.126-.573.303-.909.531v6.155c0,.133.024.22.072.262s.126.075.234.099l.702.108c.072.012.126.06.162.144.036.084.054.178.054.279s-.021.192-.063.27c-.042.078-.111.117-.207.117h-3.276c-.084,0-.15-.039-.198-.117-.048-.077-.078-.168-.09-.27-.012-.102.003-.195.045-.279.042-.084.117-.132.225-.144l.54-.09c.12-.024.207-.052.261-.081.054-.03.081-.111.081-.243v-6.481c0-.168-.03-.278-.09-.333-.06-.054-.144-.093-.252-.117l-.522-.107c-.12-.024-.204-.078-.252-.162-.048-.084-.066-.171-.054-.261.012-.09.045-.171.099-.243.054-.072.129-.108.225-.108h2.304v.504c.479-.288.936-.482,1.368-.585.432-.102.888-.152,1.368-.152.996,0,1.764.222,2.304.666.54.443.81,1.122.81,2.033v5.292c0,.108.015.189.045.243.03.055.111.094.243.117l.666.108c.108.012.186.06.234.144ZM113.767,59.343c.054.091.078.184.072.279-.006.097-.04.187-.099.271-.06.084-.144.126-.252.126h-3.744c-.132,0-.225-.042-.279-.126-.054-.084-.081-.181-.081-.288,0-.108.027-.207.081-.297.054-.091.135-.142.243-.153l.828-.09c.216-.012.324-.126.324-.343v-6.714c0-.155-.024-.258-.072-.306s-.126-.084-.234-.108l-.612-.126c-.132-.023-.225-.081-.279-.171-.054-.09-.075-.18-.063-.27.012-.09.054-.171.126-.243.072-.072.18-.108.324-.108h2.268v7.992c0,.12.018.21.054.27.036.06.12.102.252.126l.9.126c.108.012.189.062.243.152ZM112.309,47.031c.234.21.351.507.351.891,0,.349-.117.624-.351.828s-.513.306-.837.306c-.312,0-.588-.102-.828-.306-.24-.204-.36-.479-.36-.828,0-.384.12-.681.36-.891.24-.21.516-.315.828-.315.324,0,.603.105.837.315ZM124.648,59.334c.048.084.066.178.054.279-.012.102-.042.192-.09.27-.048.078-.114.117-.198.117h-3.276c-.084,0-.147-.039-.189-.117-.042-.077-.066-.168-.072-.27-.006-.102.012-.195.054-.279.042-.084.105-.132.189-.144l.54-.09c.12-.024.207-.052.261-.081.054-.03.081-.111.081-.243v-5.311c0-.588-.123-1.044-.369-1.368-.246-.323-.675-.485-1.287-.485-.168,0-.339.006-.513.018-.174.013-.369.052-.585.117-.216.066-.459.162-.729.288-.27.126-.573.303-.909.531v6.155c0,.133.024.22.072.262.048.042.126.075.234.099l.702.108c.072.012.126.06.162.144.036.084.054.178.054.279s-.021.192-.063.27c-.042.078-.111.117-.207.117h-3.276c-.084,0-.15-.039-.198-.117-.048-.077-.078-.168-.09-.27-.012-.102.003-.195.045-.279.042-.084.117-.132.225-.144l.54-.09c.12-.024.207-.052.261-.081.054-.03.081-.111.081-.243v-6.481c0-.168-.03-.278-.09-.333-.06-.054-.144-.093-.252-.117l-.522-.107c-.12-.024-.204-.078-.252-.162-.048-.084-.066-.171-.054-.261.012-.09.045-.171.099-.243.054-.072.129-.108.225-.108h2.304v.504c.479-.288.936-.482,1.368-.585.432-.102.888-.152,1.368-.152.996,0,1.764.222,2.304.666.54.443.81,1.122.81,2.033v5.292c0,.108.015.189.045.243.03.055.111.094.243.117l.666.108c.108.012.186.06.234.144ZM134.925,50.964h-3.168c-.444-.144-.93-.216-1.458-.216-.612,0-1.149.084-1.611.252-.462.168-.849.393-1.161.674s-.546.603-.702.962c-.156.359-.234.731-.234,1.114,0,.611.135,1.123.405,1.537.27.413.609.758,1.017,1.033l-.846.971h.018c-.264.3-.396.617-.396.953,0,.431.264.731.792.898-.228.191-.426.368-.594.53-.168.162-.306.329-.414.503-.108.174-.189.356-.243.549-.054.191-.081.407-.081.646,0,.3.069.587.207.863.138.275.363.515.675.719.312.203.726.368,1.242.494.516.126,1.152.188,1.908.188.876,0,1.626-.068,2.25-.207.624-.138,1.128-.33,1.512-.575.384-.246.666-.537.846-.873.18-.337.27-.702.27-1.099,0-.708-.273-1.232-.819-1.574-.546-.343-1.269-.543-2.169-.604l-3.438-.288c-.408-.023-.612-.162-.612-.414,0-.155.083-.336.252-.54l.648-.773c.168.036.354.065.558.09.204.024.408.036.612.036.612,0,1.149-.078,1.611-.234.462-.155.846-.372,1.152-.647.306-.276.534-.604.684-.981.15-.378.225-.783.225-1.215,0-.336-.066-.654-.198-.954-.132-.3-.282-.576-.45-.828h1.728c.108,0,.192-.051.252-.153.06-.102.09-.216.09-.342s-.03-.24-.09-.342c-.06-.102-.15-.153-.27-.153ZM128.355,59.712c.144-.107.3-.21.468-.306l3.24.252c.408.036.726.105.954.207.228.102.396.222.504.36.108.138.171.284.189.44.018.156.021.312.009.468-.024.54-.336.951-.936,1.233-.6.282-1.434.423-2.502.423-.36,0-.699-.03-1.017-.09-.318-.061-.594-.15-.828-.271-.234-.12-.42-.272-.558-.459-.138-.186-.213-.398-.225-.639-.012-.276.012-.513.072-.711.06-.198.144-.372.252-.521.108-.15.234-.279.378-.388ZM131.875,55.349c-.402.412-.951.618-1.647.618-.768,0-1.336-.206-1.701-.618-.366-.412-.549-.953-.549-1.622,0-.287.054-.561.162-.825.108-.263.264-.496.468-.699.204-.202.447-.364.729-.483.282-.12.597-.18.945-.18s.657.064.927.189c.27.126.501.293.693.502.192.209.336.445.432.708.096.263.144.526.144.789,0,.669-.201,1.21-.603,1.622ZM155.256,51.088c.042.07.063.149.063.236,0,.088-.018.17-.054.246-.036.076-.079.12-.126.132l-.486.108c-.18.035-.3.144-.36.323-.216.601-.45,1.236-.702,1.908-.252.672-.507,1.351-.765,2.034-.258.684-.513,1.359-.765,2.025-.252.666-.486,1.299-.702,1.898h-.72l-2.124-5.813c-.336.936-.615,1.719-.837,2.349-.222.63-.408,1.161-.558,1.593-.15.433-.276.792-.378,1.08-.102.288-.195.552-.279.792h-.684l-3.114-7.74c-.036-.096-.09-.189-.162-.278-.072-.09-.174-.147-.306-.171l-.522-.108c-.06-.012-.108-.056-.144-.132-.036-.076-.054-.158-.054-.246,0-.087.021-.166.063-.236.042-.07.099-.105.171-.105h3.348c.072,0,.126.038.162.114.036.076.054.158.054.246,0,.087-.018.17-.054.246-.036.076-.09.12-.162.131l-.882.126c-.084.013-.132.058-.144.136-.012.078-.006.165.018.261l2.196,5.562c.324-.936.675-1.923,1.053-2.961.378-1.037.729-2.024,1.053-2.961h.648l2.142,5.904,2.016-5.616c.06-.204-.012-.317-.216-.342l-.864-.123c-.06-.012-.108-.056-.144-.132-.036-.077-.054-.159-.054-.247,0-.089.018-.168.054-.238.036-.07.09-.105.162-.105h2.97c.084,0,.147.035.189.105ZM164.121,59.118l-.648-.108c-.072,0-.12-.026-.144-.081-.024-.054-.036-.158-.036-.315v-4.806c0-.996-.294-1.758-.882-2.286-.588-.528-1.422-.792-2.502-.792-.528,0-1.017.065-1.467.197-.45.133-.837.318-1.161.559-.324.24-.576.534-.756.882-.18.349-.27.744-.27,1.188h1.494c0-.6.204-1.056.612-1.367.408-.312.936-.469,1.584-.469.624,0,1.086.184,1.386.55.3.366.45.891.45,1.574v.774h-1.314c-.792,0-1.476.081-2.052.243-.576.162-1.05.381-1.422.657-.372.275-.648.606-.828.989-.18.385-.27.799-.27,1.242,0,.828.261,1.461.783,1.899.522.438,1.293.656,2.313.656.612,0,1.143-.09,1.593-.27.45-.18.849-.474,1.197-.882v.252c0,.408.24.612.72.612h1.62c.108,0,.198-.03.27-.091.072-.06.108-.174.108-.342s-.036-.288-.108-.359c-.072-.072-.162-.108-.27-.108ZM161.781,56.274c0,1.032-.258,1.8-.774,2.304-.516.504-1.188.756-2.016.756-.516,0-.906-.126-1.17-.378-.264-.252-.396-.66-.396-1.224,0-.276.051-.546.153-.811.102-.264.273-.495.513-.692.24-.198.552-.357.936-.478.384-.12.864-.18,1.44-.18h1.314v.702ZM174.416,59.397c.037.078.051.162.045.252-.006.09-.033.171-.08.243-.049.071-.107.107-.18.107h-3.185c-.072,0-.133-.036-.182-.107-.047-.072-.074-.153-.08-.243-.006-.09.01-.174.045-.252.035-.078.107-.129.217-.153l.557-.108c.109-.023.166-.077.172-.161.006-.084-.01-.162-.045-.234l-1.908-2.628-2.16,2.664c-.061.071-.084.146-.072.225.012.078.066.123.162.135l.541.108c.082.012.148.061.197.144.047.085.072.172.072.262s-.025.171-.072.243c-.049.071-.121.107-.217.107h-2.771c-.084,0-.15-.036-.198-.108-.048-.071-.072-.156-.072-.252,0-.097.021-.184.063-.262.042-.078.117-.129.225-.153l.468-.09c.12-.025.222-.067.306-.127.084-.06.156-.12.216-.18l2.791-3.373-2.485-3.265c-.072-.096-.135-.171-.189-.225-.054-.055-.135-.1-.243-.136l-.648-.145c-.108-.036-.183-.093-.225-.171-.042-.078-.06-.159-.054-.244.006-.084.036-.159.09-.225.054-.066.123-.1.207-.1l3.205.018c.096,0,.168.036.215.106.049.07.072.149.072.237,0,.089-.021.174-.062.256-.043.082-.106.129-.19.142l-.611.105c-.098.023-.154.068-.172.135-.018.065.016.146.1.243l1.729,2.393,1.816-2.376c.049-.072.066-.146.055-.225-.012-.078-.078-.129-.197-.153l-.576-.126c-.109-.023-.184-.075-.227-.153-.041-.077-.057-.162-.045-.252.012-.09.045-.171.1-.243.055-.071.129-.107.225-.107h2.863c.072,0,.129.04.17.12.043.079.062.168.062.267s-.018.188-.053.267c-.037.08-.09.126-.162.139l-.541.09c-.131.024-.225.057-.277.099-.055.043-.125.111-.207.207l-2.449,3.133,2.592,3.51c.06.084.133.156.217.216.084.06.18.102.287.126l.559.126c.096.024.162.075.197.153ZM179.808,59.343c.054.091.078.184.072.279-.007.097-.039.187-.1.271-.06.084-.144.126-.252.126h-3.744c-.132,0-.225-.042-.278-.126-.055-.084-.081-.181-.081-.288,0-.108.026-.207.081-.297.054-.091.135-.142.243-.153l.827-.09c.217-.012.324-.126.324-.343v-6.714c0-.155-.023-.258-.071-.306-.049-.048-.126-.084-.234-.108l-.612-.126c-.132-.023-.225-.081-.278-.171-.055-.09-.075-.18-.063-.27.012-.09.054-.171.126-.243s.18-.108.324-.108h2.268v7.992c0,.12.019.21.055.27.035.06.119.102.252.126l.899.126c.108.012.189.062.243.152ZM176.685,48.75c-.24-.204-.36-.479-.36-.828,0-.384.12-.681.36-.891.24-.21.516-.315.828-.315.324,0,.603.105.837.315.234.21.351.507.351.891,0,.349-.116.624-.351.828-.234.204-.513.306-.837.306-.312,0-.588-.102-.828-.306ZM190.688,59.334c.048.084.066.178.055.279-.013.102-.043.192-.091.27-.048.078-.114.117-.197.117h-3.276c-.084,0-.147-.039-.189-.117-.042-.077-.065-.168-.071-.27-.007-.102.012-.195.054-.279.042-.084.104-.132.19-.144l.54-.09c.119-.024.206-.052.261-.081.054-.03.081-.111.081-.243v-5.311c0-.588-.123-1.044-.369-1.368-.246-.323-.675-.485-1.287-.485-.168,0-.339.006-.513.018-.175.013-.369.052-.585.117-.217.066-.459.162-.73.288-.269.126-.573.303-.909.531v6.155c0,.133.024.22.072.262.048.042.126.075.234.099l.702.108c.071.012.126.06.161.144.036.084.055.178.055.279s-.021.192-.063.27c-.042.078-.111.117-.207.117h-3.275c-.085,0-.15-.039-.198-.117-.048-.077-.078-.168-.09-.27-.013-.102.003-.195.045-.279.042-.084.117-.132.225-.144l.54-.09c.12-.024.207-.052.261-.081.055-.03.081-.111.081-.243v-6.481c0-.168-.029-.278-.09-.333-.06-.054-.144-.093-.252-.117l-.521-.107c-.12-.024-.204-.078-.252-.162-.049-.084-.066-.171-.055-.261.012-.09.045-.171.1-.243.054-.072.129-.108.225-.108h2.304v.504c.481-.288.937-.482,1.368-.585.433-.102.888-.152,1.368-.152.996,0,1.764.222,2.304.666.54.443.81,1.122.81,2.033v5.292c0,.108.015.189.045.243.029.055.11.094.243.117l.666.108c.107.012.186.06.233.144ZM200.967,50.964h-3.168c-.444-.144-.931-.216-1.458-.216-.612,0-1.149.084-1.611.252s-.85.393-1.161.674c-.312.281-.546.603-.702.962-.156.359-.233.731-.233,1.114,0,.611.135,1.123.404,1.537.271.413.609.758,1.018,1.033l-.847.971h.019c-.265.3-.397.617-.397.953,0,.431.264.731.792.898-.227.191-.426.368-.594.53-.168.162-.306.329-.414.503-.107.174-.189.356-.243.549-.054.191-.081.407-.081.646,0,.3.069.587.207.863.138.275.363.515.676.719.311.203.726.368,1.241.494.517.126,1.152.188,1.908.188.876,0,1.626-.068,2.25-.207.624-.138,1.128-.33,1.512-.575.385-.246.666-.537.847-.873.18-.337.269-.702.269-1.099,0-.708-.272-1.232-.818-1.574-.547-.343-1.27-.543-2.17-.604l-3.438-.288c-.408-.023-.612-.162-.612-.414,0-.155.084-.336.252-.54l.648-.773c.168.036.354.065.558.09.204.024.408.036.612.036.612,0,1.148-.078,1.611-.234.462-.155.846-.372,1.152-.647.307-.276.534-.604.685-.981.149-.378.225-.783.225-1.215,0-.336-.066-.654-.198-.954-.132-.3-.282-.576-.449-.828h1.728c.108,0,.191-.051.252-.153.06-.102.09-.216.09-.342s-.03-.24-.09-.342c-.061-.102-.15-.153-.27-.153ZM194.396,59.712c.144-.107.3-.21.468-.306l3.24.252c.407.036.726.105.955.207.228.102.396.222.504.36.107.138.171.284.189.44.019.156.021.312.01.468-.024.54-.337.951-.937,1.233-.6.282-1.434.423-2.502.423-.36,0-.699-.03-1.017-.09-.318-.061-.595-.15-.828-.271-.234-.12-.42-.272-.559-.459-.138-.186-.213-.398-.225-.639-.012-.276.012-.513.072-.711.06-.198.144-.372.252-.521.107-.15.233-.279.378-.388ZM197.915,55.349c-.401.412-.951.618-1.646.618-.769,0-1.335-.206-1.701-.618s-.549-.953-.549-1.622c0-.287.054-.561.162-.825.107-.263.264-.496.468-.699.204-.202.447-.364.729-.483.282-.12.598-.18.945-.18s.657.064.927.189c.271.126.501.293.693.502.191.209.336.445.432.708.097.263.145.526.145.789,0,.669-.201,1.21-.604,1.622ZM214.132,56.508c.18.276.27.589.27.936,0,.384-.068.741-.207,1.07-.138.331-.353.619-.647.864-.294.246-.669.441-1.125.585-.456.144-1.002.216-1.638.216-.169,0-.378-.023-.631-.07-.252-.047-.513-.12-.782-.22-.271-.1-.54-.22-.811-.361-.269-.142-.513-.308-.728-.5v-1.729c0-.071.038-.132.117-.18.077-.048.164-.078.261-.09.096-.012.186,0,.27.036.084.036.138.102.162.197l.324,1.278c.24.276.519.486.837.63.317.145.65.216.999.216.696,0,1.235-.12,1.62-.361.384-.24.582-.614.594-1.12,0-.302-.051-.563-.153-.786-.102-.223-.242-.419-.423-.588-.18-.169-.39-.316-.63-.442-.24-.127-.492-.238-.756-.335l-.432-.162c-.324-.121-.651-.254-.982-.398-.33-.144-.63-.309-.899-.497-.271-.187-.489-.406-.657-.659-.168-.253-.252-.542-.252-.868,0-.398.084-.747.252-1.048.168-.301.401-.558.702-.769.3-.211.65-.37,1.053-.479.401-.108.843-.163,1.323-.163.275,0,.572.025.891.074.317.049.65.159.999.331l.198-.258c.036-.049.093-.086.171-.11.078-.024.159-.037.243-.037s.158.021.225.065c.065.043.099.102.099.175v2.209c0,.084-.035.15-.107.198-.072.048-.156.071-.252.071-.097,0-.186-.021-.271-.062-.084-.042-.138-.111-.162-.207l-.252-.882c-.24-.228-.516-.405-.827-.531-.312-.126-.625-.188-.937-.188-.612,0-1.077.126-1.395.378-.318.252-.483.582-.495.989,0,.252.045.459.135.621.09.162.216.301.378.414.162.114.354.216.576.307.222.09.471.188.747.297l.324.126c.348.132.695.285,1.044.459.348.174.662.375.944.602.282.229.514.481.693.756ZM222.673,51.846c-.342-.371-.747-.653-1.215-.846-.468-.191-.99-.288-1.566-.288-.648,0-1.235.111-1.764.333-.528.223-.978.537-1.35.945-.372.408-.66.909-.864,1.503-.204.594-.306,1.257-.306,1.989,0,.672.096,1.293.288,1.862.191.57.485,1.068.882,1.494.396.427.897.76,1.503.999.606.24,1.323.36,2.15.36.229,0,.471-.018.729-.054.258-.036.513-.091.765-.162.252-.072.495-.156.729-.252.233-.097.44-.21.621-.343.119-.083.194-.183.225-.297.03-.113.024-.216-.018-.306-.043-.09-.117-.156-.226-.198-.107-.042-.24-.032-.396.027-.385.144-.777.282-1.18.414-.401.132-.812.198-1.232.198-.54,0-1.015-.093-1.422-.279-.408-.187-.754-.429-1.035-.73-.282-.3-.495-.639-.639-1.017-.145-.378-.217-.765-.217-1.161v-.36h6.03c.18,0,.321-.035.423-.107.102-.072.153-.21.153-.414,0-.72-.093-1.359-.279-1.917-.185-.558-.45-1.023-.792-1.396ZM217.157,54.762c.012-.491.099-.933.261-1.322.162-.39.369-.721.621-.99.252-.271.537-.474.854-.612.318-.138.651-.207.999-.207.685,0,1.236.268,1.656.801.42.534.642,1.312.666,2.331h-5.058ZM232.559,50.91l.055,2.016c0,.097-.036.169-.108.217-.072.048-.159.074-.261.08-.103.007-.198-.009-.288-.045-.09-.035-.142-.09-.153-.161l-.162-.738c-.071-.252-.195-.417-.369-.495-.174-.078-.362-.117-.566-.117-.168,0-.378.054-.63.162-.252.108-.514.24-.783.396-.271.155-.522.32-.756.494-.234.175-.405.321-.514.441v5.562c0,.108.016.189.046.243.029.055.11.094.242.117l.954.108c.06.023.102.081.126.171.024.09.036.183.036.278,0,.097-.018.181-.054.253-.036.071-.09.107-.162.107h-3.438c-.107,0-.189-.039-.242-.117-.055-.077-.081-.168-.081-.27s.023-.195.071-.279c.048-.084.126-.132.234-.144l.54-.09c.12-.024.207-.052.261-.081.055-.03.081-.111.081-.243v-6.481c0-.168-.03-.278-.09-.333-.061-.054-.144-.093-.252-.117l-.612-.107c-.096-.012-.165-.06-.207-.145-.042-.083-.06-.174-.054-.269s.03-.18.072-.252c.042-.072.11-.108.207-.108h2.321v1.008c.181-.144.375-.287.586-.432.209-.143.44-.272.692-.387.252-.114.522-.21.811-.288.287-.078.6-.117.936-.117.264,0,.513.016.747.045.234.03.489.069.765.117ZM243.217,51.036c.054.072.084.154.09.244.006.09-.015.177-.062.261-.048.085-.114.139-.198.162l-.468.127c-.133.024-.22.063-.261.117-.043.054-.075.117-.1.189l-3.348,7.882h-.864c-.552-1.274-1.122-2.57-1.71-3.887-.588-1.316-1.158-2.612-1.71-3.887-.036-.085-.09-.166-.162-.244-.072-.078-.162-.135-.27-.171l-.45-.108c-.108-.012-.187-.063-.234-.153-.048-.09-.069-.18-.062-.271.006-.09.036-.174.09-.252.054-.079.129-.118.225-.118h3.294c.084,0,.147.04.189.12.042.079.062.168.062.266s-.021.19-.062.275c-.042.086-.111.135-.207.147l-.792.128c-.18.036-.234.132-.162.288l2.538,6.012,2.393-5.958c.048-.12.051-.207.01-.261-.043-.054-.106-.087-.19-.1l-.72-.109c-.097-.013-.165-.062-.207-.147-.042-.085-.063-.178-.063-.275s.027-.187.081-.266c.055-.08.129-.12.226-.12h2.861c.108,0,.189.037.243.108ZM248.214,59.343c.054.091.078.184.072.279-.007.097-.039.187-.1.271-.06.084-.144.126-.252.126h-3.744c-.132,0-.225-.042-.278-.126-.055-.084-.081-.181-.081-.288,0-.108.026-.207.081-.297.054-.091.135-.142.243-.153l.827-.09c.217-.012.324-.126.324-.343v-6.714c0-.155-.023-.258-.071-.306-.049-.048-.126-.084-.234-.108l-.612-.126c-.132-.023-.225-.081-.278-.171-.055-.09-.075-.18-.063-.27.012-.09.054-.171.126-.243.072-.072.18-.108.324-.108h2.268v7.992c0,.12.019.21.055.27.035.06.119.102.252.126l.899.126c.108.012.189.062.243.152ZM245.919,49.055c-.312,0-.588-.102-.828-.306s-.36-.479-.36-.828c0-.384.12-.681.36-.891.24-.21.516-.315.828-.315.324,0,.603.105.837.315.234.21.351.507.351.891,0,.349-.116.624-.351.828-.234.204-.513.306-.837.306ZM257.51,58.839c.048.102.062.21.045.323-.018.114-.069.194-.153.241-.156.118-.354.224-.594.317-.24.095-.498.177-.774.248-.275.07-.558.123-.846.158-.288.035-.564.053-.828.053-.816,0-1.518-.135-2.105-.404-.589-.271-1.071-.627-1.449-1.071-.378-.443-.657-.954-.837-1.53-.181-.576-.271-1.17-.271-1.781,0-.769.12-1.443.36-2.025.24-.582.567-1.068.98-1.458.414-.39.906-.684,1.477-.882.569-.198,1.185-.297,1.845-.297.42,0,.813.057,1.179.171.366.114.688.249.964.404l.088-.197c.035-.061.094-.105.177-.136.082-.029.17-.041.264-.035.095.006.177.029.247.071.07.043.106.1.106.171v2.196c0,.072-.042.129-.126.171-.084.042-.174.066-.27.072-.096.006-.188-.003-.277-.027-.091-.023-.141-.065-.153-.126l-.287-1.115c-.239-.181-.529-.349-.87-.505-.341-.155-.691-.233-1.05-.233-.419,0-.816.078-1.193.234-.377.156-.709.391-.996.704-.287.312-.518.706-.691,1.182-.174.475-.26,1.031-.26,1.669,0,.541.063,1.046.189,1.516.126.469.324.878.594,1.227.271.349.624.622,1.062.821.438.198.969.297,1.593.297.348,0,.72-.065,1.116-.197.396-.132.792-.282,1.188-.45.132-.06.246-.063.343-.009.096.054.168.132.216.233ZM266.63,51.846c-.342-.371-.747-.653-1.215-.846-.468-.191-.99-.288-1.566-.288-.647,0-1.235.111-1.764.333-.528.223-.979.537-1.35.945-.372.408-.66.909-.864,1.503-.204.594-.306,1.257-.306,1.989,0,.672.096,1.293.288,1.862.191.57.485,1.068.882,1.494.396.427.896.76,1.503.999.605.24,1.323.36,2.15.36.229,0,.471-.018.729-.054.258-.036.513-.091.765-.162.252-.072.495-.156.729-.252.233-.097.44-.21.621-.343.119-.083.194-.183.225-.297.03-.113.024-.216-.018-.306-.043-.09-.117-.156-.226-.198-.107-.042-.24-.032-.395.027-.385.144-.777.282-1.18.414-.401.132-.812.198-1.232.198-.54,0-1.015-.093-1.422-.279-.408-.187-.754-.429-1.035-.73-.282-.3-.495-.639-.639-1.017-.145-.378-.217-.765-.217-1.161v-.36h6.03c.18,0,.321-.035.423-.107.102-.072.153-.21.153-.414,0-.72-.093-1.359-.279-1.917-.186-.558-.45-1.023-.792-1.396ZM261.113,54.762c.012-.491.099-.933.261-1.322.162-.39.369-.721.621-.99.252-.271.537-.474.854-.612.318-.138.651-.207.999-.207.685,0,1.236.268,1.656.801.42.534.642,1.312.666,2.331h-5.058ZM98.467,42.041h-7.646c-.196,0-.351-.091-.462-.273-.112-.182-.182-.392-.21-.63-.028-.237.007-.455.105-.651.098-.195.273-.308.525-.336l1.26-.21c.279-.056.483-.119.609-.19.126-.069.189-.259.189-.566v-15.782c0-.392-.07-.651-.21-.777-.14-.126-.336-.216-.588-.273l-1.218-.252c-.28-.057-.476-.183-.588-.379-.112-.195-.154-.7-.126-.91.028-.21.105-.399.231-.567.126-.168.301-.252.525-.252h5.377v1.477c1.12-.672,2.185-1.127,3.193-1.365,1.008-.237,2.072-.357,3.193-.357,2.324,0,4.117.519,5.377,1.554,1.26,1.037,1.891,2.619,1.891,4.747v13.009c0,.253.035.441.105.567.069.126.259.218.567.273l1.555.252c.252.028.434.141.546.336.112.196.154.414.126.651-.028.238-.098.448-.21.63-.112.183-.267.273-.462.273h-7.646c-.196,0-.343-.091-.441-.273-.099-.182-.154-.392-.168-.63-.015-.237.027-.455.126-.651.098-.195.245-.308.441-.336l1.26-.21c.28-.056.483-.119.609-.19.126-.069.189-.259.189-.566v-13.052c0-1.371-.288-2.437-.861-3.192-.574-.756-1.575-1.135-3.003-1.135-.393,0-.792.015-1.197.043-.406.027-.861.119-1.365.273-.504.154-1.071.378-1.702.672-.63.295-1.338.708-2.122,1.239v15.026c0,.309.056.512.168.609.112.099.294.176.546.231l1.638.252c.168.028.294.141.378.336.084.196.126.414.126.651s-.049.448-.147.63c-.099.183-.259.273-.483.273ZM134.574,22.625c-.994-.938-2.163-1.659-3.508-2.163-1.344-.504-2.801-.756-4.369-.756-1.625,0-3.116.259-4.474.776-1.359.519-2.535,1.261-3.529,2.227-.995.967-1.764,2.122-2.311,3.466-.546,1.345-.819,2.857-.819,4.537s.28,3.207.84,4.579c.56,1.373,1.33,2.542,2.311,3.508.98.967,2.135,1.716,3.466,2.248,1.33.531,2.779.798,4.348.798,1.68,0,3.207-.267,4.579-.798,1.372-.532,2.548-1.281,3.528-2.248.98-.966,1.744-2.135,2.29-3.508.546-1.372.819-2.898.819-4.579,0-1.708-.28-3.248-.84-4.621-.561-1.372-1.337-2.526-2.332-3.466ZM133.545,34.241c-.365,1.092-.882,2.044-1.555,2.856-.672.812-1.47,1.449-2.395,1.911-.924.462-1.947.693-3.066.693-1.092,0-2.087-.237-2.983-.714-.896-.477-1.659-1.12-2.289-1.933-.63-.812-1.113-1.765-1.449-2.856-.336-1.093-.504-2.254-.504-3.487s.168-2.387.504-3.466c.336-1.077.819-2.017,1.449-2.815.63-.798,1.393-1.429,2.289-1.891.896-.462,1.891-.692,2.983-.692,1.12,0,2.142.238,3.066.714.924.477,1.723,1.12,2.395,1.933.672.812,1.19,1.758,1.555,2.835.363,1.079.546,2.221.546,3.424,0,1.233-.183,2.394-.546,3.487ZM160.66,41.969l-5.235-16.103s-5.892,15.543-6.081,16.103h-1.548l-6.014-19.005c-.082-.224-.204-.441-.367-.651-.163-.21-.394-.343-.693-.398l-1.182-.252c-.136-.027-.245-.13-.326-.308-.081-.177-.122-.369-.122-.573s.047-.39.143-.554c.095-.164.224-.246.387-.246h7.579c.163,0,.286.089.367.267.081.178.122.369.122.574s-.041.396-.122.574c-.082.178-.204.28-.367.308l-1.997.294c-.19.028-.299.133-.326.314-.027.183-.014.386.041.609l3.936,13.335s5.378-14.091,6.112-16.276h1.467l5.367,16.234,5.068-13.461c.136-.476-.027-.741-.489-.798l-1.956-.288c-.136-.027-.245-.13-.326-.309-.081-.178-.122-.37-.122-.576,0-.205.041-.391.122-.555.082-.164.204-.247.367-.247h6.724c.19,0,.333.082.428.246.095.164.143.349.143.554s-.041.397-.122.573c-.082.178-.177.28-.285.308l-1.1.252c-.408.084-.68.336-.815.756-.489,1.4-6.657,17.898-7.146,19.299h-1.63ZM213.544,17.058l-10.445,20.988h-.767l-10.365-20.903v21.599c0,.336.061.589.182.757.121.168.369.28.746.336l1.976.21c.188.028.336.141.443.336.107.196.162.413.162.651s-.06.455-.182.651-.302.294-.544.294h-8.509c-.242,0-.424-.098-.544-.294-.121-.196-.182-.413-.182-.651s.054-.462.161-.672c.107-.211.283-.329.524-.357l1.694-.168c.43-.027.712-.126.847-.294.134-.168.201-.435.201-.799V14.12c0-.309-.04-.539-.121-.693-.081-.153-.269-.259-.565-.315l-1.532-.206c-.242-.027-.417-.143-.524-.35-.108-.206-.148-.426-.121-.659.027-.233.094-.446.202-.639.107-.192.269-.289.484-.289h6.211l10.042,22.324,10.042-22.324h6.009c.189,0,.343.097.464.288.121.192.189.404.202.638.013.233-.034.452-.142.658-.107.205-.282.321-.524.349l-1.492.21c-.35.084-.564.196-.644.336-.081.141-.121.351-.121.631v24.664c0,.336.06.596.182.777.12.183.369.288.746.316.671.084,1.148.133,1.432.146.282.015.517.036.705.064.161.028.289.141.384.336.094.196.148.413.161.651.013.238-.041.455-.161.651-.121.196-.33.294-.626.294h-8.993c-.161,0-.296-.098-.403-.294s-.161-.413-.161-.651.04-.462.121-.672c.081-.211.215-.329.403-.357l1.896-.168c.43-.027.712-.126.847-.294.135-.168.202-.435.202-.799v-21.684ZM241.447,37.538c-.088-.214-.267-.363-.514-.462-.246-.098-.603-.033-.928.169-.941.583-4.19,3.896-8.766,2.385-.973-.321-1.719-1.001-2.361-1.701-.644-.7-1.131-1.491-1.459-2.374-.329-.882-.493-1.785-.493-2.709v-.841h13.762c.411,0,.734-.084.967-.252.233-.168.349-.489.349-.966,0-1.681-.214-3.172-.638-4.474-.424-1.303-1.026-2.388-1.807-3.256-.781-.868-1.706-1.526-2.773-1.975-1.068-.448-2.26-.672-3.574-.672-1.48,0-2.821.259-4.026.776-1.205.518-2.233,1.254-3.081,2.206-.85.952-1.507,2.121-1.972,3.508-.466,1.386-.698,2.934-.698,4.642,0,1.569.219,3.019.657,4.349.438,1.33,1.109,2.492,2.013,3.486.904.994,2.004,1.9,3.431,2.332,6.027,1.828,11.027-2.456,11.438-2.765.275-.195.774-.678.474-1.407ZM227.562,26.776c.371-.91.842-1.681,1.417-2.311.577-.63,1.226-1.106,1.952-1.429.726-.321,1.486-.482,2.281-.482,1.561,0,2.821.623,3.78,1.869.957,1.246,1.465,3.06,1.518,5.44h-11.545c.029-1.148.227-2.178.596-3.088ZM280.304,39.576c-.168-.168-.378-.252-.63-.252l-1.513-.252c-.168,0-.28-.064-.336-.19-.057-.126-.084-.371-.084-.735v-11.216c0-2.324-.687-4.102-2.059-5.336-1.372-1.232-3.318-1.848-5.839-1.848-1.233,0-2.374.154-3.424.462-1.051.309-1.953.742-2.71,1.302-.756.561-1.344,1.247-1.765,2.059-.42.812-.63,1.737-.63,2.772h3.487c0-1.399.476-2.464,1.428-3.192.952-.728,2.185-1.092,3.697-1.092,1.456,0,2.534.427,3.234,1.281s1.051,2.079,1.051,3.676v1.806h-3.067c-1.848,0-3.444.189-4.789.567-1.344.378-2.45.89-3.318,1.533-.868.645-1.513,1.415-1.933,2.311-.42.896-.63,1.863-.63,2.899,0,1.932.609,3.409,1.827,4.432,1.219,1.021,3.018,1.533,5.398,1.533,1.428,0,2.668-.21,3.718-.63s1.981-1.107,2.794-2.059v.588c0,.952.56,1.429,1.68,1.429h3.781c.252,0,.462-.07.63-.21.168-.141.252-.406.252-.799s-.084-.672-.252-.84ZM274.213,32.686c0,2.409-.603,4.201-1.807,5.377-1.205,1.177-2.772,1.765-4.705,1.765-1.205,0-2.115-.294-2.73-.882-.616-.589-.925-1.54-.925-2.857,0-.644.119-1.273.357-1.89.237-.616.637-1.155,1.197-1.617.56-.463,1.288-.833,2.185-1.113.896-.28,2.017-.421,3.36-.421h3.067v1.639ZM80.078,42.379c-1.364.439-3,.659-4.906.659-1.584,0-3.205-.302-4.862-.904-1.658-.602-3.234-1.467-4.73-2.595l.044-5.862c0-.272.11-.477.33-.613.22-.136.462-.212.726-.227.264-.015.521.053.77.205.249.151.403.379.462.681l.748,4.317c.85.848,1.81,1.507,2.882,1.977,1.07.47,2.236.704,3.498.704,2.435,0,4.282-.507,5.544-1.522,1.261-1.015,1.892-2.506,1.892-4.476,0-1.211-.227-2.242-.682-3.09-.455-.848-1.049-1.568-1.782-2.158-.734-.591-1.577-1.083-2.53-1.477-.954-.393-1.914-.727-2.882-.999-1.085-.303-2.164-.689-3.234-1.159-1.071-.469-2.039-1.037-2.904-1.703-.865-.667-1.569-1.446-2.112-2.341-.543-.892-.814-1.915-.814-3.067,0-2.635.88-4.688,2.64-6.157,1.76-1.469,4.414-2.203,7.964-2.203.968,0,2.016.146,3.146.44,1.129.294,2.104.611,2.926.95l.484-1.159c.117-.185.292-.322.528-.414.234-.091.469-.12.704-.091.234.031.44.115.616.252.176.138.264.33.264.577v6.624c0,.272-.103.477-.308.613-.206.136-.433.212-.682.227-.249.016-.484-.045-.704-.182-.22-.136-.36-.341-.418-.613l-.616-3.181c-.352-.212-.785-.417-1.298-.614-.514-.197-1.049-.378-1.606-.545-.558-.166-1.1-.302-1.628-.409-.528-.106-.998-.158-1.408-.158-1.379,0-2.523.151-3.432.454-.91.303-1.636.704-2.178,1.204-.543.5-.924,1.061-1.144,1.681-.22.621-.33,1.25-.33,1.886,0,1.152.205,2.098.616,2.84.411.742.961,1.348,1.65,1.817.688.47,1.488.856,2.398,1.159.909.304,1.848.591,2.816.863,1.144.364,2.28.781,3.41,1.249,1.128.47,2.141,1.068,3.036,1.795.895.727,1.621,1.599,2.178,2.613.557,1.014.836,2.234.836,3.658,0,1.362-.206,2.605-.616,3.725-.411,1.121-1.056,2.083-1.936,2.885-.88.804-2.002,1.425-3.366,1.864ZM258.211,40.765c.112.818-.456,1.573-1.273,1.688-.119.017-.547.07-1.144.07-1.241,0-3.216-.231-4.684-1.507-.798-.693-1.749-1.982-1.749-4.187v-14.793h-4.27c-.309,0-.525-.111-.651-.336-.126-.224-.189-.469-.189-.735s.077-.511.231-.735c.153-.224.371-.336.651-.336h4.228v-6.806h3v6.806h3.316c.363,0,.63.112.798.336.168.225.252.47.252.735s-.091.512-.272.735c-.183.225-.441.336-.777.336h-3.316v14.793c0,.871.232,1.498.711,1.917.971.85,2.819.819,3.451.734.817-.106,1.575.464,1.688,1.283Z" fill="#231815"/>
</svg>